<?xml version="1.0" standalone="no"?>
<!DOCTYPE svg PUBLIC "-//W3C//DTD SVG 20010904//EN"
 "http://www.w3.org/TR/2001/REC-SVG-20010904/DTD/svg10.dtd">
<svg version="1.0" xmlns="http://www.w3.org/2000/svg"
 width="244.000000pt" height="244.000000pt" viewBox="0 0 244.000000 244.000000"
 preserveAspectRatio="xMidYMid meet">
<metadata>
Created by potrace 1.11, written by Peter Selinger 2001-2013
</metadata>
<g transform="translate(0.000000,244.000000) scale(0.100000,-0.100000)"
fill="#000000" stroke="none">
<path d="M1130 1551 c-5 -11 -10 -56 -10 -100 l0 -81 -34 0 c-40 0 -66 -22
-66 -54 0 -31 20 -47 62 -49 l33 -2 5 -137 c5 -133 6 -137 36 -180 44 -60 101
-88 179 -88 72 0 102 21 91 64 -7 27 -31 38 -91 41 -48 2 -80 18 -96 47 -7 12
-12 72 -13 135 -2 96 0 113 13 114 9 1 46 2 83 3 96 1 132 35 91 85 -15 17
-31 21 -103 23 l-85 3 0 81 c0 53 -5 87 -14 98 -19 23 -68 21 -81 -3z"/>
<path d="M1838 1553 c-27 -31 -318 -623 -318 -647 0 -31 22 -48 57 -44 26 3
39 26 192 330 156 309 164 328 151 352 -16 31 -59 35 -82 9z"/>
<path d="M325 1415 c-16 -8 -88 -40 -160 -71 -72 -31 -138 -63 -147 -72 -27
-23 -24 -93 5 -120 13 -12 27 -22 31 -22 4 0 32 -11 62 -25 30 -14 56 -25 59
-25 2 0 32 -13 67 -28 128 -58 129 -58 149 -33 41 50 18 73 -138 141 -139 61
-142 48 22 119 55 24 106 49 113 55 20 20 23 58 5 78 -19 21 -28 21 -68 3z"/>
<path d="M2046 1414 c-24 -23 -19 -60 10 -83 15 -12 30 -21 35 -21 4 0 43 -16
86 -36 43 -20 89 -40 102 -46 32 -12 23 -18 -79 -63 -153 -66 -160 -70 -166
-92 -8 -30 3 -61 25 -68 16 -5 127 38 293 113 36 17 71 39 76 49 16 29 12 90
-6 106 -16 14 -338 157 -353 157 -4 0 -15 -7 -23 -16z"/>
<path d="M636 1358 c-21 -6 -58 -29 -82 -53 -39 -36 -44 -47 -44 -85 0 -92 66
-149 183 -157 107 -7 148 -42 92 -79 -43 -28 -123 -26 -177 5 -50 27 -69 25
-92 -12 -15 -24 10 -65 54 -91 29 -17 52 -21 132 -21 91 0 99 2 140 30 55 38
82 91 72 140 -14 77 -83 124 -193 132 -67 4 -115 25 -108 46 17 51 135 68 199
29 44 -28 73 -28 91 -1 56 79 -120 157 -267 117z"/>
</g>
</svg>
